<svg version="1.2" xmlns="http://www.w3.org/2000/svg" viewBox="0 0 480 162" width="480" height="162">
	<title>logo-svg-svg</title>
	<style>
		.s0 { fill: #ffffff } 
		.s1 { fill: #c7a17a } 
	</style>
	<path id="Layer" fill-rule="evenodd" class="s0" d="m229.5 124.2q-9.5 0-14.5-5.4-4.9-5.4-4.9-15.2v-45.2q0-9.8 4.9-15.2 5-5.4 14.5-5.4 9.5 0 14.4 5.4 5.1 5.4 5.1 15.2v8.9h-12.5v-9.7q0-7.8-6.6-7.8-6.6 0-6.6 7.8v46.9q0 7.7 6.6 7.7 6.6 0 6.6-7.7v-12.8h12.5v11.9q0 9.8-5.1 15.2-4.9 5.4-14.4 5.4zm46.7 0q-9.7 0-14.9-5.5-5.2-5.5-5.2-15.6v-44.2q0-10.1 5.2-15.6 5.2-5.5 14.9-5.5 9.7 0 14.9 5.5 5.1 5.5 5.1 15.6v44.2q0 10.1-5.1 15.6-5.2 5.5-14.9 5.5zm0-12q6.8 0 6.8-8.3v-45.8q0-8.3-6.8-8.3-6.9 0-6.9 8.3v45.8q0 8.3 6.9 8.3zm28.9-73.2h35v12h-21.8v23.4h17.1v12h-17.1v36.6h-13.2zm41.3 0h34.9v12h-21.7v23.4h17v12h-17v36.6h-13.2zm41.2 0h36v12h-22.8v22.2h18.2v12h-18.2v25.8h22.8v12h-36zm43.6 0h36v12h-22.8v22.2h18.2v12h-18.2v25.8h22.8v12h-36zm62.8 0h13.2v72h21.8v12h-35zm52 0h17.8l13.7 84h-13.2l-2.4-16.7v0.3h-15l-2.4 16.4h-12.2zm14.4 56.2l-5.9-41.6h-0.2l-5.8 41.6zm23.6-56.2h19.9q10.2 0 14.9 4.8 4.6 4.7 4.6 14.5v3.4q0 6.5-2.1 10.5-2.1 4.1-6.4 5.9v0.3q9.9 3.3 9.9 17.5v7.2q0 9.7-5.2 14.9-5 5-14.9 5h-20.7zm18.3 34.2q4 0 5.9-2 2-2.1 2-6.9v-4.7q0-4.5-1.6-6.6-1.6-2-5.1-2h-6.3v22.2zm2.4 37.8q3.4 0 5.1-1.8 1.7-1.9 1.7-6.5v-7.3q0-5.8-2-7.9-2-2.3-6.5-2.3h-5.9v25.8zm64.1 13.2q-9.6 0-14.5-5.4-4.9-5.5-4.9-15.7v-4.8h12.5v5.7q0 8.2 6.8 8.2 3.4 0 5.1-1.9 1.8-2.1 1.8-6.5 0-5.3-2.4-9.2-2.4-4.1-8.9-9.8-8.2-7.2-11.4-12.9-3.3-5.9-3.3-13.2 0-10 5.1-15.4 5-5.5 14.6-5.5 9.5 0 14.3 5.5 4.9 5.4 4.9 15.6v3.5h-12.5v-4.3q0-4.3-1.6-6.3-1.7-2-5-2-6.6 0-6.6 8 0 4.6 2.4 8.6 2.6 3.9 9 9.6 8.3 7.2 11.4 13 3.2 5.9 3.2 13.8 0 10.4-5.2 15.9-5 5.5-14.8 5.5zm46.1 0q-9.4 0-14.5-5.4-4.9-5.4-4.9-15.2v-45.2q0-9.8 4.9-15.2 5.1-5.4 14.5-5.4 9.5 0 14.4 5.4 5.1 5.4 5.1 15.2v8.9h-12.5v-9.7q0-7.8-6.6-7.8-6.6 0-6.6 7.8v46.9q0 7.7 6.6 7.7 6.6 0 6.6-7.7v-12.8h12.5v11.9q0 9.8-5.1 15.2-4.9 5.4-14.4 5.4zm27.4-85.2h13.2v34.2h14.1v-34.2h13.2v84h-13.2v-37.8h-14.1v37.8h-13.2zm69.4 85.2q-9.7 0-14.8-5.5-5.2-5.5-5.2-15.6v-44.2q0-10.1 5.2-15.6 5.1-5.5 14.8-5.5 9.8 0 14.9 5.5 5.2 5.5 5.2 15.6v44.2q0 10.1-5.2 15.6-5.1 5.5-14.9 5.5zm0-12q6.9 0 6.9-8.3v-45.8q0-8.3-6.9-8.3-6.8 0-6.8 8.3v45.8q0 8.3 6.8 8.3zm48.1 12q-9.7 0-14.9-5.5-5.2-5.5-5.2-15.6v-44.2q0-10.1 5.2-15.6 5.2-5.5 14.9-5.5 9.7 0 14.9 5.5 5.1 5.5 5.1 15.6v44.2q0 10.1-5.1 15.6-5.2 5.5-14.9 5.5zm0-12q6.8 0 6.8-8.3v-45.8q0-8.3-6.8-8.3-6.9 0-6.9 8.3v45.8q0 8.3 6.9 8.3zm29-73.2h13.2v72h21.7v12h-34.9z"/>
	<path id="Layer" fill-rule="evenodd" class="s1" d="m150.5 123c-0.7 1.1-2.1 1.4-3.3 0.7-1.1-0.7-1.4-2.1-0.7-3.2 8.9-14.5 12.2-29.3 9-41.1-6.6-3.3-14.7-4.6-23.9-3.8-2.9 5.9-6.7 11.3-11.3 15.9q-0.1 0.1-0.2 0.3c-0.6 5 0.3 9.6 1.1 12.4l11.2-9.1c1-0.8 2.5-0.7 3.4 0.3 0.8 1.1 0.6 2.6-0.4 3.4l-11.2 9.1c3.2 1.6 8.9 3.9 15.4 3.8 1.3-0.1 2.4 1 2.4 2.3 0.1 1.8-1.5 2.4-3.1 2.4-8.6 0-15.7-3.5-18.7-5.3l-11.8 9.6c3.2 1.8 10.1 5.1 18.3 4.9 1.4-0.1 2.5 1 2.5 2.3 0 1.9-1.7 2.4-3.2 2.4-10.6 0-19-4.8-21.5-6.4l-9.8 7.9q-0.3 1.3-0.7 2.5c3.5 2 11 5.4 19.9 5.1 1.3 0 2.4 1 2.4 2.4 0.1 1.9-1.7 2.4-3.3 2.4-9 0-16.4-3.1-20.7-5.4q-2.2 5.4-5.5 9.5c4.8 3.2 10.1 5 15.5 5.2 8.7 0.4 16.1-3.6 22.6-8.9 6.2-5 11.7-10.6 16.4-16.7 0.8-1 2.3-1.2 3.3-0.4 1.1 0.8 1.2 2.3 0.4 3.3-4.8 6.4-10.6 12.2-17.1 17.5-7.3 6-16.1 10.3-25.8 10-6.5-0.3-12.8-2.5-18.5-6.4-3.8 3.8-8.3 6.5-13.4 7.9q-4.2 1.2-8.5 1.2c-7.7 0-15.7-2.9-23-8.5-9.7-7.5-17.2-18.9-21-32.3-3.8-13.3-3.5-27 0.9-38.5q1.6-4.4 4-8.1-1-1.1-1.9-2.2c-18.8-23.2-25-51.8-15.1-69.7 0.3-0.6 0.8-1 1.4-1.2 12.4-3.8 28.2-0.4 43.2 9.3 1.1 0.7 1.4 2.1 0.7 3.2-0.7 1.1-2.2 1.5-3.3 0.8-13.4-8.7-27.3-12-38.3-9-3.9 7.6-4.7 17.7-2.3 28.7 2.6 12 8.6 24 17.4 34.9q0.5 0.6 1 1.2c3.5-4.3 7.8-7.5 12.6-9.5 3.4-1.4 7.1-2.2 10.8-2.4q0.2 0 0.4 0l-2.9-3.6c-2 0.7-7.1 2.3-13.4 2.3-2.5 0-5.1-0.2-7.8-0.8-1.3-0.3-2.1-1.6-1.8-2.9 0.3-1.3 1.6-2.1 2.9-1.8 7.1 1.7 13.6 0.3 16.9-0.7l-8.5-10.5c-2.2 0.8-6.3 1.9-11.3 1.9-2.2 0-4.6-0.3-7.1-0.8-1.3-0.3-2-1.6-1.7-2.9 0.3-1.3 1.5-2.1 2.8-1.8 5.6 1.4 10.9 0.5 14.1-0.3l-8.1-10c-0.9-1-0.7-2.5 0.3-3.4 1-0.8 2.5-0.6 3.3 0.4l8.1 10c1.5-3 3.5-8 3.3-13.7 0-1.3 1-2.4 2.3-2.4 1.3-0.1 2.4 1 2.5 2.3 0.2 8.1-3.1 14.8-4.8 17.7l8.5 10.5c1.6-3 4.4-9.1 4.2-16.4-0.1-1.3 1-2.4 2.3-2.4 1.3-0.1 2.4 1 2.4 2.3 0.3 9.9-4.2 17.9-5.8 20.4l5.9 7.2q1 0.2 1.9 0.4 0.2-0.4 0.3-0.7c3-7.3 7.4-14 12.9-19.7q0.5-0.5 1-1-0.8-1.2-1.6-2.3-0.9-1.2-1.9-2.4c-4.1-5-8.6-9.5-13.4-13.5-1-0.8-1.1-2.3-0.3-3.3 0.8-1 2.3-1.2 3.3-0.3 5.1 4.1 9.8 8.9 14.1 14.1q1 1.2 2 2.5 0.7 1 1.3 1.9c6.8-5.7 14.4-9.7 22.3-11.5 11.2-2.7 21.5-0.6 28.9 5.7 7.5 6.3 11.3 16.1 10.5 27.6-0.3 5-1.4 10-3.3 14.9 9.4-0.5 17.9 1.3 24.8 5 0.5 0.3 0.9 0.8 1.1 1.4 4.1 13.2 0.7 29.9-9.2 45.9zm-88.2-62.9c3.6 1.5 7.2 3.5 10.6 6.1 4.8 3.7 9 8.3 12.6 13.7q0 0 0-0.1c6.8-8.6 9.8-19.1 14.7-28.7q0-0.1 0-0.1c4.3-8.5 10.9-15.4 19-20.4q0.1 0 0.1 0 0.7-0.4 1.4-0.8c-12.1-7.4-30.2-3.4-44.2 9.6-6 5.6-11 12.8-14.1 20.5q-0.1 0.1-0.1 0.2zm4.8 88.6c-0.7-15.5-6.6-30-15.2-42.9-8.1-12.1-13.5-26.1-12.5-40.9q0-0.1 0-0.2c-4.6 2-8.7 5.5-11.9 10q0 0.1-0.1 0.1c-7.5 10.8-9.9 27.4-5.1 44.1 3.5 12.4 10.4 23 19.3 29.9 8.2 6.2 17.2 8.7 25.6 6.9q0-3.5-0.1-7zm23.6-43.4c-3.4-17.3-14.5-35.9-32.2-41.4-4.5-1.5-9.3-1.9-14-0.9q-0.1 0.1-0.2 0.1 0 0.1 0 0.1c-0.6 5.9-0.5 11.8 0.7 17.5 1.7 8.3 6.2 15.5 10.9 22.5 3.7 5.5 7 11.2 9.6 17.3q0.9 1.9 1.6 3.9c2.8 7.7 4.3 15.7 4.7 23.9q0.1 2.9 0.1 5.9 5.4-2.4 9.6-6.9 0-0.1 0.1-0.1c8.7-9.7 12.2-25.8 9.1-41.9zm10.8 14.9c-0.8-2.1-2.6-7.6-2.6-14.6q-1.3 0.4-2.6 0.8-0.3 0.1-0.6 0.2c1 6.1 1.1 12.2 0.4 18zm15.7-12.8c-0.7-2.2-1.8-6.2-2-11.2q-1.4 1.2-2.9 2.3-3.8 2.6-7.9 4.7c0 0-0.7 0.3-0.7 0.4-0.4 5.8 0.9 10.8 1.7 13.4zm7.6-74.5q-0.1 0-0.1 0c-7.8 4.3-14.8 10.3-19.2 18.1q0 0.1 0 0.1c-6.1 10.9-9.2 23.2-17.3 33q-0.1 0-0.1 0.1 2.2 4.1 4 8.6 1.6 4.5 2.7 9.1c0 0 1.1-0.3 1.2-0.4 3.9-1.2 7.6-3 11-5.2 9.1-5.7 16.4-14.2 20.9-23.9 7-14.8 6.1-30.6-3.1-39.5z"/>
</svg>